<svg xmlns="http://www.w3.org/2000/svg" width="215" height="152" viewBox="0 0 215 152"><g fill="none" fill-rule="evenodd"><path fill="#B5E7FF" d="M82.046 33.29c50.938-23.027 102.356-26.732 119.357 2.966 17 29.698-14.845 63.633-67.584 87.474-52.739 23.84-107.481 27.803-123.916-.906C-6.53 94.115 31.108 56.316 82.046 33.29z"/><path fill="#FFF" fill-rule="nonzero" d="M53.048 77.635a18.519 18.519 0 0115.205-2l65.77 20.063A6.955 6.955 0 00143 89.04V58.57c0-7.145-4.665-13.45-11.492-15.533l-74.53-22.736A6.955 6.955 0 0048 26.96l-.001 53.824 5.048-3.148z"/><path fill="#2855AF" fill-rule="nonzero" d="M54.951 20c.572 0 1.142.07 1.696.21l.33.092 74.531 22.736a16.235 16.235 0 0111.488 15.182l.004.35v30.471a6.955 6.955 0 01-8.647 6.749l-.33-.092-65.77-20.064a18.519 18.519 0 00-14.834 1.776l-.37.225L48 80.783V26.96A6.955 6.955 0 0154.951 20zm-3.49 55.09a21.519 21.519 0 0117.667-2.325l65.77 20.063A3.955 3.955 0 00140 89.041v-30.47a13.235 13.235 0 00-9.367-12.663l-74.53-22.736A3.955 3.955 0 0051 26.959l-.001 48.418.46-.288z"/><path fill="#2855AF" fill-rule="nonzero" d="M103.57 11.689a1.5 1.5 0 01.565-2.554l17.566-5.334a1.5 1.5 0 01.871 2.871l-12.088 3.67 10.032 2.22c38.912 10.56 58.145 33.335 58.526 69.136l.005 1.089a1.5 1.5 0 11-3 0c0-35.022-18.273-57.006-56.248-67.313l-9.96-2.202 9.412 8.423a1.5 1.5 0 01.214 1.998l-.096.12a1.5 1.5 0 01-2.118.117L103.57 11.69zm2.193 130.122a1.5 1.5 0 01-.564 2.554l-17.566 5.334a1.5 1.5 0 11-.871-2.871l12.088-3.67-10.032-2.22c-38.912-10.56-58.145-33.335-58.526-69.136l-.005-1.089a1.5 1.5 0 013 0c0 35.022 18.273 57.006 56.248 67.313l9.96 2.202-9.412-8.423a1.5 1.5 0 01-.214-1.998l.096-.12a1.5 1.5 0 012.118-.117l13.68 12.241z"/><path fill="#FDE8E9" d="M66.6 38.59l58 17.863a1.964 1.964 0 011.4 1.869v4.22c0 1.081-.895 1.958-2 1.958-.204 0-.406-.03-.6-.09l-58-17.863a1.964 1.964 0 01-1.4-1.869v-4.22c0-1.081.895-1.958 2-1.958.204 0 .406.03.6.09zm.005 13.502l30.992 9.688A2.001 2.001 0 0199 63.688V68a2.002 2.002 0 01-2.605 1.909L65.403 60.22A2.001 2.001 0 0164 58.312V54a2.002 2.002 0 012.605-1.909z"/><path fill="#FFF" fill-rule="nonzero" d="M68 106.885c.006 1.078 1.333 4.06 4.363 4.967 15.705 4.7 59.058 16.657 65.583 19.324 3.29.885 6.597 2.73 9.92 5.535 4.986 4.207 10.14 11.908 10.134 11.25-.042-4.265-.042-21.636 0-52.113 0-6.765-4.673-12.06-11.107-14.032l-70.236-21.53a6.515 6.515 0 00-1.91-.286C71.13 60 68 63.112 68 66.752v40.133z"/><path fill="#2855AF" fill-rule="nonzero" d="M74.747 60c.54 0 1.076.067 1.599.2l.31.086 70.237 21.53C153.327 83.788 158 89.083 158 95.848l-.007 51.203c.002.35.004.653.007.91.006.658-5.148-7.043-10.133-11.25-3.324-2.805-6.63-4.65-9.921-5.535-6.525-2.667-49.878-14.624-65.583-19.324-2.932-.877-4.27-3.7-4.358-4.857l-.005-.11V66.752C68 63.112 71.13 60 74.747 60zM155 95.848c0-5.17-3.527-9.49-8.986-11.163l-70.236-21.53a3.515 3.515 0 00-1.03-.155C72.777 63 71 64.776 71 66.752v40.097l.004-.053c.002-.007.006-.004.012.008l.12.288c.09.192.21.397.35.594.451.63 1.041 1.084 1.738 1.292l4.895 1.442c1.612.47 3.433.996 5.5 1.591l28.041 8.025 8.24 2.385c9.599 2.798 15.43 4.586 18.259 5.623l.746.284c3.684 1.024 7.314 3.066 10.897 6.09.175.148.352.3.53.458 1.167 1.033 2.37 2.252 3.626 3.645l.473.531.541.619.028-43.823z"/><path fill="#B4E7FF" d="M84.6 78.09l58 17.863a1.964 1.964 0 011.4 1.869v4.22c0 1.081-.895 1.958-2 1.958-.204 0-.406-.03-.6-.09l-58-17.863a1.964 1.964 0 01-1.4-1.869v-4.22c0-1.081.895-1.958 2-1.958.204 0 .406.03.6.09zm27.005 21.002l30.992 9.688a2.001 2.001 0 011.403 1.908V115a2.002 2.002 0 01-2.605 1.909l-30.992-9.688a2.001 2.001 0 01-1.403-1.908V101a2.002 2.002 0 012.605-1.909z"/></g></svg>