<svg xmlns="http://www.w3.org/2000/svg" width="215" height="152" viewBox="0 0 215 152"><g fill="none" fill-rule="evenodd"><path fill="#B5E7FF" d="M162.806 63.508c58.566.441 68.1 45.442 19.619 68.845-43.257 20.881-98.068 23.099-146.736 14.237-18.15-3.304-36.319-11.945-33.986-24.355 3.991-21.228 77.883-59.355 161.103-58.727z"/><path fill="#FFF" fill-rule="nonzero" d="M28.612 61.488l33.433-15.935 60.908 36.87h19.885l-8.349 32.3H114.62l-25.044 15.061-60.964-9.734z"/><path fill="#B4E7FF" fill-rule="nonzero" d="M126.45 1.985l58.31 70.39-18.55 14.01-28.383-14.41-17.769 6.147V53.508l-19.143-2.778z"/><path fill="#FFF" d="M106.057 44.217l19.632-38.065 5.066 41.301z"/><path fill="#FDE8E9" fill-rule="nonzero" d="M120.058 79.615c5.309-4.517 12.172-7.24 19.666-7.24 16.835 0 30.483 13.738 30.483 30.685 0 16.946-13.648 30.684-30.483 30.684-12.698 0-23.583-7.817-28.165-18.93L89.84 129.412l.55-60.035-61.78-8.561 2.228-1.191 59.25 8.834 8.337-4.773L54.268 47.63l-17.304 8.72 21.865-11.69 61.23 8.848v26.107zm-1.458 30.161c4.888 2.957 12.365-.535 16.7-7.797 4.335-7.263 3.887-15.548-1-18.504-4.888-2.956-12.365.535-16.7 7.798-4.335 7.263-3.888 15.547 1 18.503z"/><path fill="#2855AF" fill-rule="nonzero" d="M134.49 71.32l-9.155-64.023-21.415 40.88 16.558 2.392a2.963 2.963 0 012.53 2.939v22.13a31.626 31.626 0 0111.481-4.318zm2.93-.347c.761-.055 1.53-.082 2.304-.082 10.873 0 20.477 5.465 26.25 13.816l16.659-12.581L128.187 6.4l9.233 64.573zm30 16.025a32.184 32.184 0 014.262 16.062c0 17.766-14.308 32.168-31.958 32.168-12.15 0-22.715-6.825-28.12-16.874l-19.68 13.229a2.937 2.937 0 01-2.81 1.134l-60.964-9.735a2.964 2.964 0 01-2.489-2.932V61.488c0-.113.007-.224.019-.333a2.972 2.972 0 011.548-2.962l30.217-16.155a2.933 2.933 0 011.803-.317l41.572 6.007 24.325-46.436a1.47 1.47 0 012.438-.258l58.31 70.39c.54.653.428 1.629-.248 2.14L167.68 87.13l-.26-.132zm-57.11 28.656a32.249 32.249 0 01-2.543-12.594c0-10.301 4.81-19.47 12.291-25.359V55.543L92.476 69.85c.033.177.05.359.05.545v57.212l17.783-11.954zm7.78-62.43L58.829 44.66 32.033 58.987 90 67.457c.155.023.307.058.452.103l27.638-14.336zM89.576 70.396l-60.964-8.908v58.562l60.964 9.734V70.396zm50.148 61.863c16.02 0 29.008-13.073 29.008-29.2 0-16.126-12.987-29.199-29.008-29.199-16.02 0-29.007 13.073-29.007 29.2 0 16.126 12.987 29.199 29.007 29.199z"/><path d="M0 0h215v152H0z"/></g></svg>