<svg xmlns="http://www.w3.org/2000/svg" width="215" height="152" viewBox="0 0 215 152"><g fill="none" fill-rule="evenodd"><path d="M.498 0h214.005v152H.498z"/><path fill="#B5E7FF" d="M115.232 25.087c35.41-20.373 91.06-29.714 94.809-6.221 5.427 34.014-43.063 72.387-91.028 97.594-57.398 30.164-116.81 37.805-116.587 21.568.263-19.064 54.131-79.179 112.806-112.94z"/><path fill="#FFF" fill-rule="nonzero" d="M101.833 31.492h97.512a6 6 0 015.907 7.052l-13.534 76a6 6 0 01-5.908 4.948H88.298a6 6 0 01-5.907-7.052l13.535-76a6 6 0 015.907-4.948z"/><path fill="#FFF" fill-rule="nonzero" d="M83.736 116.818h104.769a4 4 0 012.72 6.933l-17.15 15.906a19 19 0 01-12.92 5.07H65.994a7 7 0 01-4.76-12.132l12.981-12.041a14 14 0 019.52-3.736zM53.905 10.156h83.8a6 6 0 015.907 7.052l-11.576 65a6 6 0 01-5.907 4.948h-83.8a6 6 0 01-5.906-7.052l11.575-65a6 6 0 015.907-4.948z"/><path fill="#FFF" fill-rule="nonzero" d="M21.814 41.68h30.864a7 7 0 016.891 8.226l-11.461 64.36a7 7 0 01-6.892 5.773H10.352a7 7 0 01-6.891-8.228l11.461-64.36a7 7 0 016.892-5.772z"/><path fill="#FDE8E9" fill-rule="nonzero" d="M94.727 87.836h31.76a6.44 6.44 0 006.34-5.311l8.23-46.213h50.391a2.147 2.147 0 012.107 2.558l-2.282 11.7-79.615 64.101H92.574a2.147 2.147 0 01-2.115-2.517l4.268-24.318zM51.095 41.68l4.207-24.167a3.22 3.22 0 013.172-2.668h72.578a2.147 2.147 0 012.107 2.558l-1.768 9.064L65.417 79.25H54.344l5.342-30a6.44 6.44 0 00-6.34-7.57h-2.251zm-40.722 59.566c.013-.703 3.067-17.339 9.163-49.905h29.34L45.06 73.114c-23.138 19.458-34.7 28.835-34.688 28.131z"/><path fill="#E0F5FF" fill-rule="nonzero" d="M171.924 137.251c-3.622 2.722-6.44 4.225-12.879 4.256H60.701c-2.044-.007-2.603-.1-2.603-1.41a.5.5 0 01.005-.07 1.07 1.07 0 01.263-.38l.152-.141c.539-.331 1.533-.515 2.607-.515h97.715c4.806 0 8.378-1.524 12.072-4.309l15.42-13.26c.371-.279 1.275-.957 1.602-1.369a1.074 1.074 0 01.552 1.846l-16.199 15.025c-.12.111-.24.22-.363.327zm-42.858-53.927a3.22 3.22 0 01-2.58 1.292H53.388l.574-3.22h68.707c3.122 0 4.244-2.239 4.791-5.312l11.279-63.333a3.221 3.221 0 012.579 3.73l-11.661 65.48a3.21 3.21 0 01-.591 1.363c-.732.815-1.75 1.292-3.19 1.292H53.388l.287-1.61 75.39.318zM139.22 9.566zm62.505 34.242l-12.529 70.355a3.22 3.22 0 01-3.17 2.655h-1.822c2.502 0 2.831-6.005 3.433-9.385l12.829-72.034c.095-.61-.128-1.153-.843-1.228.851.002 1.6.367 2.171.86.488.454.834 1.06.966 1.741.11.813-.062 1.512-.114 1.807l-.92 5.23zm-160.5 73.01H9.684a3.22 3.22 0 01-3.171-3.785l.09-.508h32.634c3.121 0 2.573-.092 3.12-3.165L53.83 44.936a3.221 3.221 0 012.685 3.748l-11.66 65.479a3.216 3.216 0 01-1.296 2.053c-.607.388-1.37.602-2.336.602z"/><path fill="#2855AF" fill-rule="nonzero" d="M48.026 114.727a6.44 6.44 0 01-6.341 5.312h-32a6.44 6.44 0 01-6.342-7.57L15.004 46.99a6.44 6.44 0 016.341-5.312h21.073l4.79-26.89a6.44 6.44 0 016.34-5.312h84.6a6.44 6.44 0 016.34 7.57l-2.475 13.898h57.585a6.44 6.44 0 016.34 7.57l-13.572 76.212a6.423 6.423 0 01-1.645 3.28 4.294 4.294 0 01-.045 6.254l-16.199 15.024a20.396 20.396 0 01-13.87 5.442H59.097a4.294 4.294 0 01-2.92-7.442l17.742-16.457a15.029 15.029 0 018.599-3.922 6.41 6.41 0 01-.814-4.437l4.387-24.633H52.815l-4.79 26.891zm5.362-30.111h73.098a3.22 3.22 0 003.17-2.656l11.662-65.478a3.22 3.22 0 00-3.17-3.785h-84.6a3.22 3.22 0 00-3.17 2.656l-4.689 26.326h7.657a6.44 6.44 0 016.34 7.57l-6.298 35.367zm88.052-50.45l-8.613 48.359a6.44 6.44 0 01-6.34 5.311H89.361l-4.487 25.197a3.22 3.22 0 003.17 3.785h97.98a3.22 3.22 0 003.171-2.655l13.572-76.213a3.22 3.22 0 00-3.17-3.785H141.44zm46.316 85.873H84.14a11.808 11.808 0 00-8.03 3.15l-17.743 16.457a1.073 1.073 0 00.73 1.86h101.511c4.332 0 8.504-1.636 11.68-4.582l16.2-15.025a1.073 1.073 0 00-.73-1.86zm-112.23 7.513h93.39a.537.537 0 110 1.074h-93.39a.537.537 0 110-1.074zm-5.367 4.294h93.389a.537.537 0 110 1.074h-93.39a.537.537 0 110-1.074zm10.734-8.587h93.39a.537.537 0 110 1.073h-93.39a.537.537 0 110-1.073zm-59.548-78.36a3.22 3.22 0 00-3.17 2.656L6.514 113.033a3.22 3.22 0 003.17 3.785h32a3.22 3.22 0 003.171-2.655l11.661-65.479a3.22 3.22 0 00-3.17-3.785h-32z"/></g></svg>